<svg width="140" height="140" viewBox="0 0 140 140" fill="none" xmlns="http://www.w3.org/2000/svg">
<path id="Symbol" d="M70 1L71.8417 34.8582L77.2125 1.37799L75.5049 35.2432L84.3459 2.50781L79.1078 36.0091L91.3222 4.3771L82.611 37.1473L98.0648 6.96536L85.9759 38.6455L104.5 10.2442L89.1658 40.4872L110.557 14.1778L92.1458 42.6522L116.17 18.723L94.8831 45.1169L121.277 23.83L97.3478 47.8542L125.822 29.4428L99.5128 50.8342L129.756 35.5L101.355 54.0241L133.035 41.9352L102.853 57.389L135.623 48.6778L103.991 60.8922L137.492 55.6541L104.757 64.4951L138.622 62.7875L105.142 68.1583L139 70L105.142 71.8417L138.622 77.2125L104.757 75.5049L137.492 84.3459L103.991 79.1078L135.623 91.3222L102.853 82.611L133.035 98.0648L101.355 85.9759L129.756 104.5L99.5128 89.1658L125.822 110.557L97.3478 92.1458L121.277 116.17L94.8831 94.8831L116.17 121.277L92.1458 97.3478L110.557 125.822L89.1658 99.5128L104.5 129.756L85.9759 101.355L98.0648 133.035L82.611 102.853L91.3222 135.623L79.1078 103.991L84.3459 137.492L75.5049 104.757L77.2125 138.622L71.8417 105.142L70 139L68.1583 105.142L62.7875 138.622L64.4951 104.757L55.6541 137.492L60.8922 103.991L48.6778 135.623L57.389 102.853L41.9352 133.035L54.0241 101.355L35.5 129.756L50.8342 99.5128L29.4428 125.822L47.8542 97.3478L23.83 121.277L45.1169 94.8831L18.723 116.17L42.6522 92.1458L14.1778 110.557L40.4872 89.1658L10.2442 104.5L38.6455 85.9759L6.96536 98.0648L37.1473 82.611L4.3771 91.3222L36.0091 79.1078L2.50781 84.3459L35.2432 75.5049L1.37799 77.2125L34.8582 71.8417L1 70L34.8582 68.1583L1.37799 62.7875L35.2432 64.4951L2.50781 55.6541L36.0091 60.8922L4.3771 48.6778L37.1473 57.389L6.96536 41.9352L38.6455 54.0241L10.2442 35.5L40.4872 50.8342L14.1778 29.4428L42.6522 47.8542L18.723 23.83L45.1169 45.1169L23.83 18.723L47.8542 42.6522L29.4428 14.1778L50.8342 40.4872L35.5 10.2442L54.0241 38.6455L41.9352 6.96536L57.389 37.1473L48.6778 4.3771L60.8922 36.0091L55.6541 2.50781L64.4951 35.2432L62.7875 1.37799L68.1583 34.8582L70 1Z" stroke="#8F8F8F"/>
</svg>
